PathFileType	4	(X/Y/Z)	RUN4																																																													
DataRate	CameraRate	NumFrames	NumMarkers	Units	OrigDataRate	OrigDataStartFrame	OrigNumFrames																																																									
15	15	6	21	mm	15	361	577																																																									
Frame#	Time	SpineBase			SpineMid			Neck			Head			ShoulderLeft			ElbowLeft			WristLeft			HandLeft			ShoulderRight			ElbowRight			WristRight			HandRight			HipLeft			KneeLeft			AnkleLeft			FootLeft			HipRight			KneeRight			AnkleRight			FootRight			SpineShoulder		
		X1	Y1	Z1	X2	Y2	Z2	X3	Y3	Z3	X4	Y4	Z4	X5	Y5	Z5	X6	Y6	Z6	X7	Y7	Z7	X8	Y8	Z8	X9	Y9	Z9	X10	Y10	Z10	X11	Y11	Z11	X12	Y12	Z12	X13	Y13	Z13	X14	Y14	Z14	X15	Y15	Z15	X16	Y16	Z16	X17	Y17	Z17	X18	Y18	Z18	X19	Y19	Z19	X20	Y20	Z20	X21	Y21	Z21
																																																																
361	24	823.228	708.2925	282.13561	813.959	1035.56608	286.62149	819.896	1352.3008	291.27316	823.08	1490.4017	339.69697	896.356	1247.0539	140.84855	910.021	1008.170014	32.56105	993.748	781.953	73.81725	1016.229	728.4827	90.96065	754.92	1223.6765	448.77035	626.64	956.2185	488.45275	654.183	726.5296	530.50945	664.686	668.4591	536.73965	882.655	719.3336	209.02905	965.453	362.1276	230.91694	981.804	-37.489	255.05629	1119.225	-70.275	308.849789	842.235	707.8491	356.4503	769.653	409.5121	345.09667	660.301	-85.342	161.11085	833.864	-103.436	189.19515	815.834	1274.5518	290.08692
362	24.06666667	828.868	707.6157	286.53116	821.521	1035.83007	290.68701	829.651	1353.6449	294.86082	835.232	1490.878	343.46394	905.949	1246.9411	144.37245	919.298	1009.057426	36.11355	1007.08	782.9021	80.87575	1029.715	725.3489	97.38535	765.347	1225.2162	453.08755	632.825	959.97093	491.30345	653.505	726.1399	532.39715	663.122	668.0868	539.71685	889.229	718.8496	213.61605	966.863	365.7303	239.32419	981.487	-33.438	273.24351	1118.639	-65.885	327.63365	846.923	707.0647	360.4356	795.896	401.3929	338.88287	723.277	-109.297	177.11015	898.146	-122.641	201.03685	825.017	1275.6156	293.81277
363	24.13333333	837.509	706.4393	291.54891	829.552	1036.06277	292.97982	837.3	1354.9785	294.90376	844.396	1490.5628	346.77874	915.704	1246.0352	147.85505	936.777	1007.448002	40.38095	1020.774	781.7432	88.07645	1044.771	725.0538	101.83705	778.507	1225.0723	456.96075	639.81	963.51516	494.81735	653.951	725.4984	534.33405	667.547	669.3039	543.75235	899.986	717.9338	218.64391	971.621	366.1294	250.48156	986.676	-32.223	294.46585	1124.175	-63.512	348.9055	853.633	705.7518	365.20292	803.229	400.3176	338.03715	818.756	-122.915	190.70495	972.69	-139.208	212.13205	832.736	1276.694	294.3906
364	24.2	846.755	703.714	297.14783	839.336	1033.6853	297.24697	847.096	1352.9642	297.62448	858.462	1488.9946	348.76984	929.08	1243.895	151.23085	950.65	1003.31356	44.64765	1033.121	782.9453	90.32885	1060.168	720.1289	107.25075	796.832	1220.5956	460.71885	649.307	965.0311	500.03815	657.5	726.1436	538.76105	674.227	669.9819	550.08845	909.019	714.4543	223.48465	973.739	362.5431	258.43864	985.042	-36.74	293.901	1122.974	-69.442	346.04221	862.895	703.9118	371.36966	806.735	400.6582	341.56969	742.31	-108.93	170.57715	914.433	-126.805	203.12255	842.578	1274.597	297.50148
365	24.26666667	856.072	701.915	307.620006	845.536	1033.35292	301.0723	851.429	1353.4029	297.68584	871.157	1488.0464	351.06178	928.633	1243.8504	151.10145	959.971	1002.77411	47.27665	1048.993	784.3858	93.34855	1074.12	716.1316	111.43595	797.528	1220.9311	461.02945	657.789	961.10288	505.38715	663.897	725.7567	545.61955	683.827	667.2139	556.49335	917.867	713.3747	233.03972	977.415	358.7986	261.12815	985.679	-40.501	297.19939	1123.513	-73.176	349.34748	872.582	701.4322	382.40956	818.81	397.776	348.72873	745.043	-108.304	171.49055	916.184	-127.115	207.06585	847.224	1274.8814	298.31601
366	24.33333333	865.694	697.949	314.6092855	862.34	1029.63693	307.624844	875.953	1350.7645	300.99792	883.765	1486.4242	351.40076	958.513	1237.7691	158.21085	973.784	999.47514	50.95255	1064.482	778.903	97.39295	1089.376	709.8118	114.56225	816.583	1216.469	465.56465	668.796	961.88296	509.56635	675.464	725.514	553.06175	694.965	671.6433	564.97975	928.969	709.1906	241.14784	982.818	352.4757	263.77714	993.333	-46.522	304.75791	1129.435	-78.717	360.25795	880.754	697.8762	388.12116	824.895	394.6307	358.18513	745.46	-108.421	174.70665	917.232	-128.287	206.17625	869.83	1271.9239	302.67419
